HIERARCHY
ROOT Hips
{
	OFFSET -0.001795 -0.223333 0.028219
	CHANNELS 6 Xposition Yposition Zposition Zrotation Yrotation Xrotation 
	JOINT LeftUpLeg
	{
		OFFSET 0.069520 -0.091406 -0.006815
		CHANNELS 3 Zrotation Yrotation Xrotation
		JOINT LeftLeg
		{
			OFFSET 0.034277 -0.375199 -0.004496
			CHANNELS 3 Zrotation Yrotation Xrotation
			JOINT LeftFoot
			{
				OFFSET -0.013596 -0.397961 -0.043693
				CHANNELS 3 Zrotation Yrotation Xrotation
				JOINT LeftToe
				{
					OFFSET 0.026358 -0.055791 0.119288
					CHANNELS 3 Zrotation Yrotation Xrotation
					End Site
					{
						OFFSET 0.000000 0.000000 0.000000
					}
				}
			}
		}
	}
	JOINT RightUpLeg
	{
		OFFSET -0.067670 -0.090522 -0.004320
		CHANNELS 3 Zrotation Yrotation Xrotation
		JOINT RightLeg
		{
			OFFSET -0.038290 -0.382569 -0.008850
			CHANNELS 3 Zrotation Yrotation Xrotation
			JOINT RightFoot
			{
				OFFSET 0.015774 -0.398415 -0.042312
				CHANNELS 3 Zrotation Yrotation Xrotation
				JOINT RightToe
				{
					OFFSET -0.025372 -0.048144 0.123348
					CHANNELS 3 Zrotation Yrotation Xrotation
					End Site
					{
						OFFSET 0.000000 0.000000 0.000000
					}
				}
			}
		}
	}
	JOINT Spine
	{
		OFFSET -0.002533 0.108963 -0.026696
		CHANNELS 3 Zrotation Yrotation Xrotation
		JOINT Spine1
		{
			OFFSET 0.005487 0.135180 0.001092
			CHANNELS 3 Zrotation Yrotation Xrotation
			JOINT Spine2
			{
				OFFSET 0.001457 0.052922 0.025425
				CHANNELS 3 Zrotation Yrotation Xrotation
				JOINT Neck
				{
					OFFSET -0.002778 0.213870 -0.042857
					CHANNELS 3 Zrotation Yrotation Xrotation
					JOINT Head
					{
						OFFSET 0.005152 0.064970 0.051349
						CHANNELS 3 Zrotation Yrotation Xrotation
						End Site
						{
							OFFSET 0.000000 0.000000 0.000000
						}
					}
				}
				JOINT LeftShoulder
				{
					OFFSET 0.078845 0.121749 -0.034090
					CHANNELS 3 Zrotation Yrotation Xrotation
					JOINT LeftArm
					{
						OFFSET 0.090977 0.030469 -0.008868
						CHANNELS 3 Zrotation Yrotation Xrotation
						JOINT LeftForeArm
						{
							OFFSET 0.259612 -0.012772 -0.027456
							CHANNELS 3 Zrotation Yrotation Xrotation
							JOINT LeftHand
							{
								OFFSET 0.249234 0.008986 -0.001171
								CHANNELS 3 Zrotation Yrotation Xrotation
								End Site
								{
									OFFSET 0.000000 0.000000 0.000000
								}
							}
						}
					}
				}
				JOINT RightShoulder
				{
					OFFSET -0.081759 0.118833 -0.038615
					CHANNELS 3 Zrotation Yrotation Xrotation
					JOINT RightArm
					{
						OFFSET -0.096012 0.032551 -0.009143
						CHANNELS 3 Zrotation Yrotation Xrotation
						JOINT RightForeArm
						{
							OFFSET -0.253742 -0.013329 -0.021401
							CHANNELS 3 Zrotation Yrotation Xrotation
							JOINT RightHand
							{
								OFFSET -0.255298 0.007772 -0.005559
								CHANNELS 3 Zrotation Yrotation Xrotation
								End Site
								{
									OFFSET 0.000000 0.000000 0.000000
								}
							}
						}
					}
				}
			}
		}
	}
}
MOTION
Frames: 13
Frame Time: 0.050000
-0.006887 0.951998 -0.071571 -1.216830 8.935722 6.026676 3.250236 -0.713288 -8.974673 -0.278486 -0.533544 12.117877 0.790608 4.075294 4.806474 0.000000 0.000000 0.000000 -0.501717 1.153796 -12.727857 1.648512 -0.146713 18.356940 -3.888027 -10.588274 5.603571 0.000000 0.000000 0.000000 7.027396 0.130975 -3.939135 2.393638 -0.721371 -5.562279 -1.123130 3.607432 4.610416 0.334245 1.982318 -18.007548 0.000000 0.000000 0.000000 7.823852 -1.108460 1.656647 2.954172 -28.883963 -2.477417 74.043170 -2.249769 -4.272141 0.000000 0.000000 0.000000 3.103044 -6.485555 -2.530792 33.143852 -17.773015 -6.986777 98.216068 35.670690 46.180775 0.000000 0.000000 0.000000 
-0.005902 0.952389 -0.071968 -1.292061 8.787508 5.730636 3.214317 -0.688004 -8.649773 -0.290084 -0.537971 12.272244 0.974751 4.368377 4.712916 0.000000 0.000000 0.000000 -0.398686 1.164675 -12.741113 1.369264 -0.060873 18.590983 -4.008344 -10.900108 5.982677 0.000000 0.000000 0.000000 7.215065 0.128101 -3.825963 2.205094 -0.641976 -5.601078 -1.315681 3.768079 4.691728 0.635004 1.784137 -17.561264 0.000000 0.000000 0.000000 7.359361 -0.474300 1.430699 0.632892 -29.602995 -2.155040 75.786136 -3.137178 -5.136002 0.000000 0.000000 0.000000 3.353072 -7.618524 -2.994168 32.818329 -17.459524 -6.849713 100.368614 35.775123 48.059424 0.000000 0.000000 0.000000 
-0.005211 0.952726 -0.072584 -1.165243 8.536222 5.439895 2.956521 -0.681559 -8.504989 -0.191099 -0.575078 12.647170 1.135202 4.618658 4.631220 0.000000 0.000000 0.000000 -0.599748 1.153007 -12.801539 1.301019 -0.034890 19.342920 -3.782333 -10.341727 5.289751 0.000000 0.000000 0.000000 7.150900 0.119912 -3.632407 1.814209 -0.474264 -5.734849 -1.201265 3.820594 4.959442 0.610387 1.807071 -17.721728 0.000000 0.000000 0.000000 6.307371 -0.129326 1.152830 -2.892204 -30.853849 -1.617795 78.597526 -3.426703 -5.596920 0.000000 0.000000 0.000000 2.631222 -8.433218 -3.272143 33.919483 -17.499344 -7.111811 102.155833 35.131112 48.750558 0.000000 0.000000 0.000000 
-0.004514 0.953061 -0.073446 -1.198460 8.327530 5.154347 2.892568 -0.690690 -8.639677 -0.395796 -0.557546 13.138261 1.649405 5.436157 4.315628 0.000000 0.000000 0.000000 -0.398443 1.167821 -12.737855 0.809411 0.121881 19.554797 -3.587381 -9.855315 4.808156 0.000000 0.000000 0.000000 7.610883 0.141379 -3.784883 1.265131 -0.268875 -5.398676 -1.513068 3.899007 5.031381 0.708200 1.752932 -17.693052 0.000000 0.000000 0.000000 5.264492 0.335253 0.847107 -7.375336 -31.899624 -0.822496 81.197162 -4.821857 -6.995619 0.000000 0.000000 0.000000 1.850904 -9.220994 -3.523405 34.548672 -17.281658 -7.192931 103.636591 34.000543 48.667046 0.000000 0.000000 0.000000 
-0.003880 0.952533 -0.074534 -1.039417 8.305509 4.971592 2.622701 -0.704770 -8.724127 -0.007955 -0.670477 13.654402 1.656650 5.321194 4.011405 0.000000 0.000000 0.000000 -0.590673 1.147394 -12.708063 0.750209 0.138319 20.068836 -3.686767 -9.975487 4.017156 0.000000 0.000000 0.000000 8.016349 0.137296 -3.710519 0.660284 -0.022897 -5.283087 -1.782690 4.147345 5.256237 0.956660 1.705397 -18.292091 0.000000 0.000000 0.000000 3.743448 0.290115 0.592864 -12.909124 -32.765194 0.236248 84.329869 -6.575920 -8.971701 0.000000 0.000000 0.000000 1.008724 -9.752067 -3.666823 35.515028 -17.308538 -7.391907 105.286863 32.599560 48.507592 0.000000 0.000000 0.000000 
-0.003358 0.952207 -0.075635 -0.917816 8.504426 4.724109 2.446285 -0.725362 -8.910839 0.070905 -0.734501 14.306815 1.722815 5.494313 4.106828 0.000000 0.000000 0.000000 -0.564770 1.123043 -12.406103 0.434664 0.222475 20.195466 -3.877513 -10.382046 3.846006 0.000000 0.000000 0.000000 8.206277 0.163318 -3.913533 0.263465 0.121497 -4.779068 -2.331576 4.255694 5.478145 1.212258 1.635368 -18.666557 0.000000 0.000000 0.000000 1.731734 0.363540 0.194504 -17.556404 -32.972626 1.157796 86.117357 -9.496891 -11.871005 0.000000 0.000000 0.000000 1.087388 -9.667083 -3.646759 35.694368 -17.520622 -7.489235 106.275929 31.325175 47.850326 0.000000 0.000000 0.000000 
-0.003065 0.951372 -0.076574 -0.808323 8.988735 4.592518 2.162380 -0.742627 -8.977876 0.647339 -0.906345 14.754114 1.626838 5.178466 3.748821 0.000000 0.000000 0.000000 -0.456978 1.116116 -12.261073 0.163806 0.275455 20.767476 -4.075557 -10.736582 3.078756 0.000000 0.000000 0.000000 8.321531 0.164010 -3.928549 -0.204873 0.323619 -4.744101 -2.626043 3.938823 6.197781 1.488801 1.604092 -19.820309 0.000000 0.000000 0.000000 0.091892 0.874050 -0.292442 -22.396172 -33.491646 2.131504 88.222127 -11.880623 -14.374591 0.000000 0.000000 0.000000 0.176628 -9.508184 -3.529568 36.540712 -17.204290 -7.620850 107.170011 29.515916 46.295942 0.000000 0.000000 0.000000 
-0.003180 0.951060 -0.077336 -0.802368 9.298769 4.240727 1.929476 -0.747307 -8.931594 0.950258 -0.988069 14.810564 1.572710 5.174854 3.946553 0.000000 0.000000 0.000000 -0.233571 1.097788 -11.826084 -0.233807 0.380416 20.923167 -4.329232 -11.309159 2.938771 0.000000 0.000000 0.000000 8.501409 0.183326 -4.040771 -0.424206 0.399194 -4.260290 -3.167715 3.509053 6.738241 1.670289 1.580516 -20.729352 0.000000 0.000000 0.000000 -1.486553 1.319689 -0.759832 -25.460062 -32.845846 2.631148 88.987564 -13.984791 -16.346294 0.000000 0.000000 0.000000 -0.170348 -9.371796 -3.455371 36.500441 -16.951661 -7.576464 108.243875 28.266318 45.335430 0.000000 0.000000 0.000000 
-0.003598 0.950767 -0.078086 -0.737825 9.856963 4.281447 1.780335 -0.765468 -9.055363 1.206693 -1.068442 14.914839 1.478678 4.871384 3.618930 0.000000 0.000000 0.000000 0.005909 1.125933 -11.975424 -0.330301 0.374720 21.425451 -4.649012 -12.024111 2.650789 0.000000 0.000000 0.000000 8.183633 0.176928 -4.027950 -0.632192 0.502339 -4.457025 -3.436527 3.065811 7.507403 1.682247 1.639246 -21.465488 0.000000 0.000000 0.000000 -2.569042 1.634217 -1.091271 -27.858910 -32.836924 3.049973 89.639130 -15.847533 -18.132573 0.000000 0.000000 0.000000 -0.433426 -9.725620 -3.571164 36.544030 -16.979417 -7.621893 109.544423 26.999975 44.547723 0.000000 0.000000 0.000000 
-0.004243 0.950788 -0.078950 -0.822548 10.051982 4.332748 1.867338 -0.791094 -9.375838 1.245719 -1.100429 15.132877 1.506053 4.951319 3.659595 0.000000 0.000000 0.000000 0.322989 1.164503 -12.123329 -0.617947 0.452371 21.668418 -4.771852 -12.311991 2.713443 0.000000 0.000000 0.000000 8.074938 0.200910 -4.291711 -0.749051 0.557671 -4.543021 -3.767501 2.940724 8.199954 1.683347 1.706886 -22.086823 0.000000 0.000000 0.000000 -2.874148 1.903422 -1.249663 -29.193023 -32.970741 3.272924 89.060487 -16.565316 -18.587555 0.000000 0.000000 0.000000 -0.268626 -10.049259 -3.707509 35.657400 -16.740926 -7.403159 110.578781 25.987855 43.910417 0.000000 0.000000 0.000000 
-0.004745 0.950804 -0.079924 -0.861536 10.219511 4.484505 1.986289 -0.810461 -9.639092 1.142547 -1.085267 15.187421 1.495109 5.002026 3.798642 0.000000 0.000000 0.000000 0.516848 1.224003 -12.644578 -0.563582 0.419383 22.468248 -4.844562 -12.467040 2.559998 0.000000 0.000000 0.000000 7.756569 0.180626 -4.133571 -1.045705 0.700536 -4.960118 -3.694730 2.387196 8.846783 1.531838 1.794482 -22.767083 0.000000 0.000000 0.000000 -3.131656 2.134528 -1.366787 -29.493623 -33.341244 3.377611 88.879815 -16.369180 -18.087892 0.000000 0.000000 0.000000 -0.806930 -10.105357 -3.677383 35.306682 -17.075266 -7.431218 111.161095 24.714802 42.116555 0.000000 0.000000 0.000000 
-0.004876 0.950945 -0.080873 -0.915961 10.067241 4.409348 1.967168 -0.807427 -9.605273 1.244241 -1.108890 15.233405 1.396956 4.799919 3.774850 0.000000 0.000000 0.000000 0.615753 1.260590 -12.954223 -0.641889 0.450649 23.242445 -4.822529 -12.406938 2.422819 0.000000 0.000000 0.000000 7.484429 0.180297 -4.084866 -1.281972 0.789099 -4.721594 -3.643033 2.005818 8.849243 1.377435 1.814545 -22.739032 0.000000 0.000000 0.000000 -3.378765 2.474339 -1.518169 -29.468507 -33.775429 3.480126 88.051303 -15.696800 -16.986672 0.000000 0.000000 0.000000 -1.223410 -9.808421 -3.518858 34.690758 -16.920773 -7.270857 111.608258 24.224580 41.318228 0.000000 0.000000 0.000000 
-0.004493 0.950989 -0.081439 -0.922082 9.850684 4.430767 2.012266 -0.794334 -9.484783 1.128539 -1.051421 14.921016 1.306931 4.753367 4.063899 0.000000 0.000000 0.000000 0.644631 1.292942 -13.280993 -0.801589 0.518726 23.577808 -4.694161 -12.123080 2.724088 0.000000 0.000000 0.000000 7.383353 0.175644 -4.021571 -1.513957 0.888901 -4.863261 -3.562553 1.492676 9.137117 1.235586 1.818502 -22.855118 0.000000 0.000000 0.000000 -3.229797 2.990669 -1.643653 -28.871036 -34.178499 3.438444 86.741057 -14.685641 -15.418846 0.000000 0.000000 0.000000 -1.921774 -9.725267 -3.404914 34.039758 -16.365584 -7.026168 111.576532 22.912482 38.839863 0.000000 0.000000 0.000000 
